<svg id="map_layer_icon" data-name="map layer icon" xmlns="http://www.w3.org/2000/svg" viewBox="0 0 20 20"><defs><style>.cls-1{fill:#171717;}</style></defs><title>map_icon_layers</title><path class="cls-1" d="M10,16.43a2.69,2.69,0,0,1-1.27-.32L2.15,12.56l-1.84,1a.6.6,0,0,0,0,1l8.84,4.78a1.83,1.83,0,0,0,1.7,0l8.84-4.78a.6.6,0,0,0,0-1l-1.84-1-6.58,3.55A2.69,2.69,0,0,1,10,16.43Z"/><path class="cls-1" d="M19.69,9.5l-1.84-1L15,10l-.46.25-.47.26-2.84,1.53a2.68,2.68,0,0,1-2.54,0L5.89,10.52l-.47-.26L5,10,2.15,8.5.31,9.5a.6.6,0,0,0,0,1.05l1.84,1,.47.25.47.26,6.06,3.27a1.75,1.75,0,0,0,1.7,0l6.06-3.27.47-.26.47-.25,1.84-1A.6.6,0,0,0,19.69,9.5Z"/><path class="cls-1" d="M19.69,5.44,10.85.62a1.75,1.75,0,0,0-1.7,0L.31,5.44a.6.6,0,0,0,0,1l1.84,1,.47.25L3.09,8,5.89,9.5l.47.25.47.26,2.32,1.25a1.75,1.75,0,0,0,1.7,0L13.17,10l.47-.26.47-.25L16.91,8l.47-.26.47-.25,1.84-1A.6.6,0,0,0,19.69,5.44Z"/></svg>