<svg id="pin_black_hover" data-name="pin black hover" xmlns="http://www.w3.org/2000/svg" viewBox="0 0 15 15"><defs><style>.cls-1{fill:#171717;}.cls-2{fill:#e53909;}</style></defs><title>iconHole</title><path class="cls-1" d="M7.05,14.73a.55.55,0,0,0,.9,0c1.12-1.63,4-6.09,4.4-9.21a1.64,1.64,0,0,0,0-.22,2.91,2.91,0,0,0,0-.4,4.9,4.9,0,0,0-9.8,0,2.91,2.91,0,0,0,0,.4,1.64,1.64,0,0,0,0,.22C3,8.64,5.93,13.1,7.05,14.73Z"/><path class="cls-2" d="M7.5,2.16a3.06,3.06,0,1,0,3.05,3.05A3,3,0,0,0,7.5,2.16Zm0,4.2A1.15,1.15,0,1,1,8.65,5.21,1.15,1.15,0,0,1,7.5,6.36Z"/></svg>