<svg id="pin_black_hover_copy" data-name="pin black hover copy" xmlns="http://www.w3.org/2000/svg" viewBox="0 0 15 15"><defs><style>.cls-1{fill:#e53909;}.cls-2{fill:#171717;}</style></defs><title>iconHole_hover</title><path class="cls-1" d="M7.08,14.75a.54.54,0,0,0,.89,0c1.12-1.64,4-6.1,4.4-9.21l0-.22c0-.14,0-.28,0-.41a4.9,4.9,0,0,0-9.79,0,2.88,2.88,0,0,0,0,.41,1.8,1.8,0,0,0,0,.22C3.05,8.65,6,13.11,7.08,14.75Z"/><path class="cls-2" d="M7.52,2.18a3.05,3.05,0,1,0,3.05,3.05A3,3,0,0,0,7.52,2.18Zm0,4.2a1.15,1.15,0,0,1,0-2.3,1.15,1.15,0,0,1,0,2.3Z"/></svg>