<svg id="pin_black_hover" data-name="pin black hover" xmlns="http://www.w3.org/2000/svg" viewBox="0 0 15 15"><defs><style>.cls-1{fill:#171717;}.cls-2{fill:#e53909;}</style></defs><title>iconMonument</title><path class="cls-1" d="M7.52,14.76a.54.54,0,0,0,.9,0c1.13-1.64,4-6.11,4.42-9.24a1.64,1.64,0,0,0,0-.22,2.88,2.88,0,0,0,0-.41,4.91,4.91,0,0,0-9.82,0,2.88,2.88,0,0,0,0,.41,1.64,1.64,0,0,0,0,.22C3.48,8.65,6.39,13.12,7.52,14.76Z"/><rect class="cls-2" x="6.05" y="7.49" width="3.99" height="0.92" rx="0.13"/><path class="cls-2" d="M8.58,2.17s0-.07-.06-.08L8,1.88H8l-.49.21a.08.08,0,0,0-.06.08L7,6.93a.1.1,0,0,0,.1.11H9A.1.1,0,0,0,9,6.93Z"/></svg>