<svg id="pin_black_hover" data-name="pin black hover" xmlns="http://www.w3.org/2000/svg" viewBox="0 0 15 15"><defs><style>.cls-1{fill:#171717;}.cls-2{fill:none;stroke:#e53909;stroke-linecap:round;stroke-linejoin:round;stroke-width:1.44px;}</style></defs><title>iconCrossMark</title><path class="cls-1" d="M7.05,14.75a.55.55,0,0,0,.9,0c1.12-1.64,4-6.1,4.4-9.21a1.8,1.8,0,0,0,0-.22,2.93,2.93,0,0,0,0-.41,4.9,4.9,0,0,0-9.8,0,2.93,2.93,0,0,0,0,.41,1.8,1.8,0,0,0,0,.22C3,8.65,5.93,13.11,7.05,14.75Z"/><line class="cls-2" x1="9.51" y1="3.11" x2="5.49" y2="7.14"/><line class="cls-2" x1="9.51" y1="7.14" x2="5.49" y2="3.11"/></svg>