<svg id="pin_black_hover_copy" data-name="pin black hover copy" xmlns="http://www.w3.org/2000/svg" viewBox="0 0 15 15"><defs><style>.cls-1{fill:#e53909;}.cls-2{fill:#171717;}</style></defs><title>iconCairn_hover</title><path class="cls-1" d="M7.09,14.73a.54.54,0,0,0,.89,0c1.13-1.63,4-6.09,4.41-9.21a1.64,1.64,0,0,0,0-.22c0-.14,0-.28,0-.4a4.9,4.9,0,1,0-9.79,0c0,.12,0,.26,0,.4l0,.22C3.07,8.64,6,13.1,7.09,14.73Z"/><path class="cls-2" d="M7.56,8.1c-2.12,0-3.71-.84-3.71-2s1.66-2,3.71-2,3.71.92,3.71,2S9.68,8.1,7.56,8.1Z"/><path class="cls-1" d="M7.56,4.47c1.84,0,3.34.8,3.34,1.67S9.4,7.72,7.56,7.72,4.22,7,4.22,6.14s1.5-1.67,3.34-1.67m0-.75c-2.29,0-4.09,1.07-4.09,2.42S5.19,8.47,7.56,8.47s4.09-1,4.09-2.33S9.85,3.72,7.56,3.72Z"/><path class="cls-2" d="M7.56,5.59c-1.34,0-2.38-.67-2.38-1.53s1-1.52,2.38-1.52,2.38.67,2.38,1.52S8.9,5.59,7.56,5.59Z"/><path class="cls-1" d="M7.56,2.92c1.11,0,2,.51,2,1.14s-.9,1.15-2,1.15-2-.51-2-1.15.9-1.14,2-1.14m0-.75C6,2.17,4.8,3,4.8,4.06S6,6,7.56,6s2.76-.81,2.76-1.9S9.13,2.17,7.56,2.17Z"/><path class="cls-2" d="M7.56,3.54A1.22,1.22,0,0,1,6.32,2.36a1.24,1.24,0,0,1,2.48,0A1.22,1.22,0,0,1,7.56,3.54Z"/><path class="cls-1" d="M7.56,1.55a.84.84,0,0,1,.87.81.87.87,0,0,1-1.74,0,.84.84,0,0,1,.87-.81m0-.75A1.59,1.59,0,0,0,5.94,2.36a1.62,1.62,0,0,0,3.24,0A1.59,1.59,0,0,0,7.56.8Z"/></svg>