<svg id="pin_black_hover_copy" data-name="pin black hover copy" xmlns="http://www.w3.org/2000/svg" viewBox="0 0 15 15"><defs><style>.cls-1{fill:#e53909;}.cls-2{fill:#171717;}</style></defs><title>iconCrossMark_hover</title><path class="cls-1" d="M7.05,14.75a.55.55,0,0,0,.9,0c1.12-1.64,4-6.1,4.4-9.21a1.8,1.8,0,0,0,0-.22,2.93,2.93,0,0,0,0-.41,4.9,4.9,0,0,0-9.8,0,2.93,2.93,0,0,0,0,.41,1.8,1.8,0,0,0,0,.22C3,8.65,5.93,13.11,7.05,14.75Z"/><path class="cls-2" d="M8.52,5.12,10,3.62a.72.72,0,0,0-1-1L7.5,4.1,6,2.6a.72.72,0,0,0-1,1l1.5,1.5L5,6.63a.71.71,0,0,0,0,1,.68.68,0,0,0,.51.22A.7.7,0,0,0,6,7.64l1.5-1.5L9,7.64a.7.7,0,0,0,.51.22A.68.68,0,0,0,10,7.64a.71.71,0,0,0,0-1Z"/></svg>