<svg id="pin_black_hover" data-name="pin black hover" xmlns="http://www.w3.org/2000/svg" viewBox="0 0 15 15"><defs><style>.cls-1{fill:#171717;}.cls-2{fill:#e53909;}</style></defs><title>iconTower</title><path class="cls-1" d="M7.05,14.76a.53.53,0,0,0,.89,0c1.12-1.63,4-6.09,4.4-9.21l0-.22c0-.14,0-.27,0-.4a4.9,4.9,0,1,0-9.79,0c0,.13,0,.26,0,.4a1.5,1.5,0,0,0,0,.22C3,8.67,5.92,13.13,7.05,14.76Z"/><path class="cls-2" d="M9.48,7.94H8.93V2a.11.11,0,0,0-.11-.11H7.63A.11.11,0,0,0,7.52,2v.46a.1.1,0,0,1-.1.11H6.23a.11.11,0,0,0-.11.11V7.94H5.57a.1.1,0,0,0-.09.1v.29a.09.09,0,0,0,.09.1H9.48a.09.09,0,0,0,.09-.1V8A.1.1,0,0,0,9.48,7.94Zm-1.19,0H6.76V6.41a.15.15,0,0,1,.12-.16H8.17a.15.15,0,0,1,.12.16Z"/></svg>